<svg xmlns="http://www.w3.org/2000/svg" xmlns:xlink="http://www.w3.org/1999/xlink" contentStyleType="text/css" data-diagram-type="SEQUENCE" height="301px" preserveAspectRatio="none" style="width:579px;height:301px;background:#FFFFFF;" version="1.1" viewBox="0 0 579 301" width="579px" zoomAndPan="magnify"><defs/><g><g><title>Utilisateur</title><rect fill="#FFFFFF" fill-opacity="0.00000" height="138.4001" width="8" x="35.1149" y="81.7999"/><line style="stroke:#181818;stroke-width:0.5;stroke-dasharray:5.0,5.0;" x1="39" x2="39" y1="81.7999" y2="220.2"/></g><g><title>Version Officielle</title><rect fill="#FFFFFF" fill-opacity="0.00000" height="138.4001" width="8" x="161.711" y="81.7999"/><line style="stroke:#181818;stroke-width:0.5;stroke-dasharray:5.0,5.0;" x1="165.1972" x2="165.1972" y1="81.7999" y2="220.2"/></g><g><title>Version Test (Shadow)</title><rect fill="#FFFFFF" fill-opacity="0.00000" height="138.4001" width="8" x="309.4145" y="81.7999"/><line style="stroke:#181818;stroke-width:0.5;stroke-dasharray:5.0,5.0;" x1="313.2247" x2="313.2247" y1="81.7999" y2="220.2"/></g><g><title>Syst&#232;me de comparaison</title><rect fill="#FFFFFF" fill-opacity="0.00000" height="138.4001" width="8" x="483.5778" y="81.7999"/><line style="stroke:#181818;stroke-width:0.5;stroke-dasharray:5.0,5.0;" x1="486.6042" x2="486.6042" y1="81.7999" y2="220.2"/></g><g><text fill="#000000" font-family="sans-serif" font-size="14" lengthAdjust="spacing" textLength="62.2297" x="5" y="78.0059">Utilisateur</text><ellipse cx="39.1149" cy="13.5" fill="#E2E2F0" rx="8" ry="8" style="stroke:#181818;stroke-width:0.5;"/><path d="M39.1149,21.5 L39.1149,48.5 M26.1149,29.5 L52.1149,29.5 M39.1149,48.5 L26.1149,63.5 M39.1149,48.5 L52.1149,63.5 " fill="#FFFFFF" fill-opacity="0.00000" style="stroke:#181818;stroke-width:0.5;"/></g><g><text fill="#000000" font-family="sans-serif" font-size="14" lengthAdjust="spacing" textLength="62.2297" x="5" y="232.2059">Utilisateur</text><ellipse cx="39.1149" cy="244.4999" fill="#E2E2F0" rx="8" ry="8" style="stroke:#181818;stroke-width:0.5;"/><path d="M39.1149,252.4999 L39.1149,279.4999 M26.1149,260.4999 L52.1149,260.4999 M39.1149,279.4999 L26.1149,294.4999 M39.1149,279.4999 L52.1149,294.4999 " fill="#FFFFFF" fill-opacity="0.00000" style="stroke:#181818;stroke-width:0.5;"/></g><g><rect fill="#E2E2F0" height="30.7999" rx="2.5" ry="2.5" style="stroke:#181818;stroke-width:0.5;" width="119.0276" x="106.1972" y="50"/><text fill="#000000" font-family="sans-serif" font-size="14" lengthAdjust="spacing" textLength="105.0276" x="113.1972" y="70.0059">Version Officielle</text></g><g><rect fill="#E2E2F0" height="30.7999" rx="2.5" ry="2.5" style="stroke:#181818;stroke-width:0.5;" width="119.0276" x="106.1972" y="219.2"/><text fill="#000000" font-family="sans-serif" font-size="14" lengthAdjust="spacing" textLength="105.0276" x="113.1972" y="239.2059">Version Officielle</text></g><g><rect fill="#E2E2F0" height="30.7999" rx="2.5" ry="2.5" style="stroke:#181818;stroke-width:0.5;" width="156.3794" x="235.2247" y="50"/><text fill="#000000" font-family="sans-serif" font-size="14" lengthAdjust="spacing" textLength="142.3794" x="242.2247" y="70.0059">Version Test (Shadow)</text></g><g><rect fill="#E2E2F0" height="30.7999" rx="2.5" ry="2.5" style="stroke:#181818;stroke-width:0.5;" width="156.3794" x="235.2247" y="219.2"/><text fill="#000000" font-family="sans-serif" font-size="14" lengthAdjust="spacing" textLength="142.3794" x="242.2247" y="239.2059">Version Test (Shadow)</text></g><g><rect fill="#E2E2F0" height="30.7999" rx="2.5" ry="2.5" style="stroke:#181818;stroke-width:0.5;" width="171.9473" x="401.6042" y="50"/><text fill="#000000" font-family="sans-serif" font-size="14" lengthAdjust="spacing" textLength="157.9473" x="408.6042" y="70.0059">Syst&#232;me de comparaison</text></g><g><rect fill="#E2E2F0" height="30.7999" rx="2.5" ry="2.5" style="stroke:#181818;stroke-width:0.5;" width="171.9473" x="401.6042" y="219.2"/><text fill="#000000" font-family="sans-serif" font-size="14" lengthAdjust="spacing" textLength="157.9473" x="408.6042" y="239.2059">Syst&#232;me de comparaison</text></g><g><polygon fill="#181818" points="153.711,109.3999,163.711,113.3999,153.711,117.3999,157.711,113.3999" style="stroke:#181818;stroke-width:1;"/><line style="stroke:#181818;stroke-width:1;" x1="39.1149" x2="159.711" y1="113.3999" y2="113.3999"/><text fill="#000000" font-family="sans-serif" font-size="13" lengthAdjust="spacing" textLength="49.1401" x="46.1149" y="107.8769">Requ&#234;te</text></g><g><polygon fill="#181818" points="301.4145,139,311.4145,143,301.4145,147,305.4145,143" style="stroke:#181818;stroke-width:1;"/><line style="stroke:#181818;stroke-width:1;" x1="39.1149" x2="307.4145" y1="143" y2="143"/><text fill="#000000" font-family="sans-serif" font-size="13" lengthAdjust="spacing" textLength="99.7101" x="46.1149" y="137.477">Requ&#234;te (copi&#233;e)</text></g><g><polygon fill="#181818" points="50.1149,168.6,40.1149,172.6,50.1149,176.6,46.1149,172.6" style="stroke:#181818;stroke-width:1;"/><line style="stroke:#181818;stroke-width:1;" x1="44.1149" x2="164.711" y1="172.6" y2="172.6"/><text fill="#000000" font-family="sans-serif" font-size="13" lengthAdjust="spacing" textLength="102.5961" x="56.1149" y="167.077">R&#233;ponse officielle</text></g><g><polygon fill="#181818" points="475.5778,198.2,485.5778,202.2,475.5778,206.2,479.5778,202.2" style="stroke:#181818;stroke-width:1;"/><line style="stroke:#181818;stroke-width:1;" x1="313.4145" x2="481.5778" y1="202.2" y2="202.2"/><text fill="#000000" font-family="sans-serif" font-size="13" lengthAdjust="spacing" textLength="125.7231" x="320.4145" y="196.677">R&#233;sultat pour analyse</text></g><!--SRC=[TSv12i9030NG_PmYTDKkl80Bho1OTH-cAGQcat6I8hsHzHfpCIk2T66NWV_V3tgJ31VZm8f6OtPkTS3k0DMLih94EFOzUwOGg88zdEW-bfVHPlnCQb2tD-paqQmRK7j9N6PgdFkBByeQNPfbJXALG7ufjxNpUQ6TrCfp8EW8l0m9Cx9AhBwKZi7G8CbYOyGmARq1]--></g></svg>