<svg xmlns="http://www.w3.org/2000/svg" xmlns:xlink="http://www.w3.org/1999/xlink" contentStyleType="text/css" data-diagram-type="DESCRIPTION" height="486px" preserveAspectRatio="none" style="width:1040px;height:486px;background:#FFFFFF;" version="1.1" viewBox="0 0 1040 486" width="1040px" zoomAndPan="magnify"><defs/><g><!--entity user--><g id="elem_user"><ellipse cx="104.6962" cy="85.4521" fill="#08427B" rx="16" ry="16" style="stroke:#073B6F;stroke-width:0.5;"/><path d="M104.6962,105.4521 C108.6962,105.4521 111.6962,105.4521 115.6962,101.4521 C123.6962,101.4521 131.6962,109.4521 131.6962,117.4521 L131.6962,121.4521 C131.6962,125.4521 127.6962,129.4521 123.6962,129.4521 L85.6962,129.4521 C81.6962,129.4521 77.6962,125.4521 77.6962,121.4521 L77.6962,117.4521 C77.6962,109.4521 85.6962,101.4521 93.6962,101.4521 C97.6962,105.4521 100.6962,105.4521 104.6962,105.4521 " fill="#08427B" style="stroke:#073B6F;stroke-width:0.5;"/><text fill="#08427B" font-family="sans-serif" font-size="16" font-weight="bold" lengthAdjust="spacing" textLength="78.2402" x="6" y="144.8162">Utilisateur</text><text fill="#08427B" font-family="sans-serif" font-size="16" font-weight="bold" lengthAdjust="spacing" textLength="4.448" x="84.2402" y="144.8162">&#160;</text><text fill="#08427B" font-family="sans-serif" font-size="16" font-weight="bold" lengthAdjust="spacing" textLength="114.7042" x="88.6882" y="144.8162">interne/externe</text><text fill="#08427B" font-family="sans-serif" font-size="12" font-style="italic" lengthAdjust="spacing" textLength="50.0283" x="79.682" y="65.9521">&#171;person&#187;</text></g><!--entity front1--><g id="elem_front1"><rect fill="#438DD5" height="87.8004" rx="2.5" ry="2.5" style="stroke:#3C7FC0;stroke-width:0.5;" width="188.9123" x="524.24" y="57.052"/><text fill="#FFFFFF" font-family="sans-serif" font-size="12" font-style="italic" lengthAdjust="spacing" textLength="62.7004" x="587.3459" y="80.2521">&#171;container&#187;</text><text fill="#FFFFFF" font-family="sans-serif" font-size="16" font-weight="bold" lengthAdjust="spacing" textLength="54.2241" x="534.24" y="98.1162">Frontal</text><text fill="#FFFFFF" font-family="sans-serif" font-size="16" font-weight="bold" lengthAdjust="spacing" textLength="4.448" x="588.4641" y="98.1162">&#160;</text><text fill="#FFFFFF" font-family="sans-serif" font-size="16" font-weight="bold" lengthAdjust="spacing" textLength="87.1202" x="592.9121" y="98.1162">Application</text><text fill="#FFFFFF" font-family="sans-serif" font-size="16" font-weight="bold" lengthAdjust="spacing" textLength="4.448" x="680.0323" y="98.1162">&#160;</text><text fill="#FFFFFF" font-family="sans-serif" font-size="16" font-weight="bold" lengthAdjust="spacing" textLength="18.672" x="684.4803" y="98.1162">F1</text><text fill="#FFFFFF" font-family="sans-serif" font-size="12" font-style="italic" lengthAdjust="spacing" textLength="46.6803" x="543.8276" y="115.6523">[React.js</text><text fill="#FFFFFF" font-family="sans-serif" font-size="12" font-style="italic" lengthAdjust="spacing" textLength="3.336" x="590.508" y="115.6523">&#160;</text><text fill="#FFFFFF" font-family="sans-serif" font-size="12" font-style="italic" lengthAdjust="spacing" textLength="68.3645" x="593.844" y="115.6523">(SPA=Single</text><text fill="#FFFFFF" font-family="sans-serif" font-size="12" font-style="italic" lengthAdjust="spacing" textLength="3.336" x="662.2085" y="115.6523">&#160;</text><text fill="#FFFFFF" font-family="sans-serif" font-size="12" font-style="italic" lengthAdjust="spacing" textLength="28.0202" x="665.5445" y="115.6523">Page</text><text fill="#FFFFFF" font-family="sans-serif" font-size="12" font-style="italic" lengthAdjust="spacing" textLength="66.0245" x="585.6839" y="131.8524">Application)]</text></g><!--entity front2--><g id="elem_front2"><rect fill="#438DD5" height="71.6003" rx="2.5" ry="2.5" style="stroke:#3C7FC0;stroke-width:0.5;" width="219.0694" x="270.16" y="65.152"/><text fill="#FFFFFF" font-family="sans-serif" font-size="12" font-style="italic" lengthAdjust="spacing" textLength="62.7004" x="348.3445" y="88.3521">&#171;container&#187;</text><text fill="#FFFFFF" font-family="sans-serif" font-size="16" font-weight="bold" lengthAdjust="spacing" textLength="54.2241" x="295.2386" y="106.2162">Frontal</text><text fill="#FFFFFF" font-family="sans-serif" font-size="16" font-weight="bold" lengthAdjust="spacing" textLength="4.448" x="349.4627" y="106.2162">&#160;</text><text fill="#FFFFFF" font-family="sans-serif" font-size="16" font-weight="bold" lengthAdjust="spacing" textLength="87.1202" x="353.9107" y="106.2162">Application</text><text fill="#FFFFFF" font-family="sans-serif" font-size="16" font-weight="bold" lengthAdjust="spacing" textLength="4.448" x="441.0308" y="106.2162">&#160;</text><text fill="#FFFFFF" font-family="sans-serif" font-size="16" font-weight="bold" lengthAdjust="spacing" textLength="18.672" x="445.4789" y="106.2162">F2</text><text fill="#FFFFFF" font-family="sans-serif" font-size="12" font-style="italic" lengthAdjust="spacing" textLength="28.0082" x="280.16" y="123.7523">[PHP</text><text fill="#FFFFFF" font-family="sans-serif" font-size="12" font-style="italic" lengthAdjust="spacing" textLength="3.336" x="308.1682" y="123.7523">&#160;</text><text fill="#FFFFFF" font-family="sans-serif" font-size="12" font-style="italic" lengthAdjust="spacing" textLength="35.6763" x="311.5042" y="123.7523">(SSR=</text><text fill="#FFFFFF" font-family="sans-serif" font-size="12" font-style="italic" lengthAdjust="spacing" textLength="3.336" x="347.1805" y="123.7523">&#160;</text><text fill="#FFFFFF" font-family="sans-serif" font-size="12" font-style="italic" lengthAdjust="spacing" textLength="35.3403" x="350.5165" y="123.7523">Server</text><text fill="#FFFFFF" font-family="sans-serif" font-size="12" font-style="italic" lengthAdjust="spacing" textLength="3.336" x="385.8568" y="123.7523">&#160;</text><text fill="#FFFFFF" font-family="sans-serif" font-size="12" font-style="italic" lengthAdjust="spacing" textLength="24.0122" x="389.1928" y="123.7523">Side</text><text fill="#FFFFFF" font-family="sans-serif" font-size="12" font-style="italic" lengthAdjust="spacing" textLength="3.336" x="413.205" y="123.7523">&#160;</text><text fill="#FFFFFF" font-family="sans-serif" font-size="12" font-style="italic" lengthAdjust="spacing" textLength="62.6884" x="416.541" y="123.7523">Rendering)]</text></g><!--entity api1--><g id="elem_api1"><rect fill="#438DD5" height="55.4002" rx="2.5" ry="2.5" style="stroke:#3C7FC0;stroke-width:0.5;" width="110.6882" x="448.35" y="241.152"/><text fill="#FFFFFF" font-family="sans-serif" font-size="12" font-style="italic" lengthAdjust="spacing" textLength="62.7004" x="472.3439" y="264.3521">&#171;container&#187;</text><text fill="#FFFFFF" font-family="sans-serif" font-size="16" font-weight="bold" lengthAdjust="spacing" textLength="26.6721" x="458.35" y="282.2162">API</text><text fill="#FFFFFF" font-family="sans-serif" font-size="16" font-weight="bold" lengthAdjust="spacing" textLength="4.448" x="485.0221" y="282.2162">&#160;</text><text fill="#FFFFFF" font-family="sans-serif" font-size="16" font-weight="bold" lengthAdjust="spacing" textLength="34.6721" x="489.4701" y="282.2162">Rest</text><text fill="#FFFFFF" font-family="sans-serif" font-size="16" font-weight="bold" lengthAdjust="spacing" textLength="4.448" x="524.1421" y="282.2162">&#160;</text><text fill="#FFFFFF" font-family="sans-serif" font-size="16" font-weight="bold" lengthAdjust="spacing" textLength="20.448" x="528.5901" y="282.2162">A1</text></g><!--entity api2--><g id="elem_api2"><rect fill="#438DD5" height="55.4002" rx="2.5" ry="2.5" style="stroke:#3C7FC0;stroke-width:0.5;" width="145.3602" x="643.02" y="241.152"/><text fill="#FFFFFF" font-family="sans-serif" font-size="12" font-style="italic" lengthAdjust="spacing" textLength="62.7004" x="684.3499" y="264.3521">&#171;container&#187;</text><text fill="#FFFFFF" font-family="sans-serif" font-size="16" font-weight="bold" lengthAdjust="spacing" textLength="26.6721" x="653.02" y="282.2162">API</text><text fill="#FFFFFF" font-family="sans-serif" font-size="16" font-weight="bold" lengthAdjust="spacing" textLength="4.448" x="679.6921" y="282.2162">&#160;</text><text fill="#FFFFFF" font-family="sans-serif" font-size="16" font-weight="bold" lengthAdjust="spacing" textLength="69.3441" x="684.1401" y="282.2162">GraphQL</text><text fill="#FFFFFF" font-family="sans-serif" font-size="16" font-weight="bold" lengthAdjust="spacing" textLength="4.448" x="753.4842" y="282.2162">&#160;</text><text fill="#FFFFFF" font-family="sans-serif" font-size="16" font-weight="bold" lengthAdjust="spacing" textLength="20.448" x="757.9322" y="282.2162">A2</text></g><!--entity api3--><g id="elem_api3"><rect fill="#438DD5" height="71.6003" rx="2.5" ry="2.5" style="stroke:#3C7FC0;stroke-width:0.5;" width="130.7248" x="190.33" y="393.052"/><text fill="#FFFFFF" font-family="sans-serif" font-size="12" font-style="italic" lengthAdjust="spacing" textLength="62.7004" x="224.3422" y="416.2521">&#171;container&#187;</text><text fill="#FFFFFF" font-family="sans-serif" font-size="16" font-weight="bold" lengthAdjust="spacing" textLength="26.6721" x="205.9083" y="434.1162">API</text><text fill="#FFFFFF" font-family="sans-serif" font-size="16" font-weight="bold" lengthAdjust="spacing" textLength="4.448" x="232.5804" y="434.1162">&#160;</text><text fill="#FFFFFF" font-family="sans-serif" font-size="16" font-weight="bold" lengthAdjust="spacing" textLength="43.5521" x="237.0284" y="434.1162">gRPC</text><text fill="#FFFFFF" font-family="sans-serif" font-size="16" font-weight="bold" lengthAdjust="spacing" textLength="4.448" x="280.5805" y="434.1162">&#160;</text><text fill="#FFFFFF" font-family="sans-serif" font-size="16" font-weight="bold" lengthAdjust="spacing" textLength="20.448" x="285.0285" y="434.1162">A3</text><text fill="#FFFFFF" font-family="sans-serif" font-size="12" font-style="italic" lengthAdjust="spacing" textLength="35.6883" x="200.33" y="451.6523">[&lt;sans</text><text fill="#FFFFFF" font-family="sans-serif" font-size="12" font-style="italic" lengthAdjust="spacing" textLength="3.336" x="236.0183" y="451.6523">&#160;</text><text fill="#FFFFFF" font-family="sans-serif" font-size="12" font-style="italic" lengthAdjust="spacing" textLength="71.7005" x="239.3543" y="451.6523">persistence&gt;]</text></g><!--entity db_api1--><g id="elem_db_api1"><path d="M356.35,398.552 C356.35,388.552 398.7002,388.552 398.7002,388.552 C398.7002,388.552 441.0504,388.552 441.0504,398.552 L441.0504,459.1523 C441.0504,469.1523 398.7002,469.1523 398.7002,469.1523 C398.7002,469.1523 356.35,469.1523 356.35,459.1523 L356.35,398.552 " fill="#438DD5" style="stroke:#3C7FC0;stroke-width:0.5;"/><path d="M356.35,398.552 C356.35,408.552 398.7002,408.552 398.7002,408.552 C398.7002,408.552 441.0504,408.552 441.0504,398.552 " fill="#FFFFFF" fill-opacity="0.00000" style="stroke:#3C7FC0;stroke-width:0.5;"/><text fill="#FFFFFF" font-family="sans-serif" font-size="12" font-style="italic" lengthAdjust="spacing" textLength="62.7004" x="367.35" y="425.7521">&#171;container&#187;</text><text fill="#FFFFFF" font-family="sans-serif" font-size="16" font-weight="bold" lengthAdjust="spacing" textLength="38.2401" x="367.1322" y="443.6162">Base</text><text fill="#FFFFFF" font-family="sans-serif" font-size="16" font-weight="bold" lengthAdjust="spacing" textLength="4.448" x="405.3722" y="443.6162">&#160;</text><text fill="#FFFFFF" font-family="sans-serif" font-size="16" font-weight="bold" lengthAdjust="spacing" textLength="20.448" x="409.8202" y="443.6162">A1</text><text fill="#FFFFFF" font-family="sans-serif" font-size="12" font-style="italic" lengthAdjust="spacing" textLength="42.0123" x="377.6941" y="461.1523">[Oracle]</text></g><!--entity db_api2--><g id="elem_db_api2"><path d="M669.68,398.552 C669.68,388.552 715.6983,388.552 715.6983,388.552 C715.6983,388.552 761.7165,388.552 761.7165,398.552 L761.7165,459.1523 C761.7165,469.1523 715.6983,469.1523 715.6983,469.1523 C715.6983,469.1523 669.68,469.1523 669.68,459.1523 L669.68,398.552 " fill="#438DD5" style="stroke:#3C7FC0;stroke-width:0.5;"/><path d="M669.68,398.552 C669.68,408.552 715.6983,408.552 715.6983,408.552 C715.6983,408.552 761.7165,408.552 761.7165,398.552 " fill="#FFFFFF" fill-opacity="0.00000" style="stroke:#3C7FC0;stroke-width:0.5;"/><text fill="#FFFFFF" font-family="sans-serif" font-size="12" font-style="italic" lengthAdjust="spacing" textLength="62.7004" x="684.348" y="425.7521">&#171;container&#187;</text><text fill="#FFFFFF" font-family="sans-serif" font-size="16" font-weight="bold" lengthAdjust="spacing" textLength="38.2401" x="684.1302" y="443.6162">Base</text><text fill="#FFFFFF" font-family="sans-serif" font-size="16" font-weight="bold" lengthAdjust="spacing" textLength="4.448" x="722.3703" y="443.6162">&#160;</text><text fill="#FFFFFF" font-family="sans-serif" font-size="16" font-weight="bold" lengthAdjust="spacing" textLength="20.448" x="726.8183" y="443.6162">A2</text><text fill="#FFFFFF" font-family="sans-serif" font-size="12" font-style="italic" lengthAdjust="spacing" textLength="72.0365" x="679.68" y="461.1523">[PostgreSQL]</text></g><!--entity queue1--><g id="elem_queue1"><path d="M801.35,398.052 L876.0504,398.052 C881.0504,398.052 881.0504,428.8522 881.0504,428.8522 C881.0504,428.8522 881.0504,459.6523 876.0504,459.6523 L801.35,459.6523 C796.35,459.6523 796.35,428.8522 796.35,428.8522 C796.35,428.8522 796.35,398.052 801.35,398.052 " fill="#438DD5" style="stroke:#3C7FC0;stroke-width:0.5;"/><path d="M876.0504,398.052 C871.0504,398.052 871.0504,428.8522 871.0504,428.8522 C871.0504,459.6523 876.0504,459.6523 876.0504,459.6523 " fill="#FFFFFF" fill-opacity="0.00000" style="stroke:#3C7FC0;stroke-width:0.5;"/><text fill="#FFFFFF" font-family="sans-serif" font-size="12" font-style="italic" lengthAdjust="spacing" textLength="62.7004" x="802.35" y="416.2521">&#171;container&#187;</text><text fill="#FFFFFF" font-family="sans-serif" font-size="16" font-weight="bold" lengthAdjust="spacing" textLength="58.6881" x="804.3562" y="434.1162">Queue1</text><text fill="#FFFFFF" font-family="sans-serif" font-size="12" font-style="italic" lengthAdjust="spacing" textLength="37.3563" x="815.0221" y="451.6523">[Kafka]</text></g><!--entity job1--><g id="elem_job1"><rect fill="#438DD5" height="71.6003" rx="2.5" ry="2.5" style="stroke:#3C7FC0;stroke-width:0.5;" width="95.3725" x="800.01" y="65.152"/><text fill="#FFFFFF" font-family="sans-serif" font-size="12" font-style="italic" lengthAdjust="spacing" textLength="62.7004" x="816.3461" y="88.3521">&#171;container&#187;</text><text fill="#FFFFFF" font-family="sans-serif" font-size="16" font-weight="bold" lengthAdjust="spacing" textLength="28.448" x="826.8002" y="106.2162">Job</text><text fill="#FFFFFF" font-family="sans-serif" font-size="16" font-weight="bold" lengthAdjust="spacing" textLength="4.448" x="855.2483" y="106.2162">&#160;</text><text fill="#FFFFFF" font-family="sans-serif" font-size="16" font-weight="bold" lengthAdjust="spacing" textLength="8.896" x="859.6963" y="106.2162">1</text><text fill="#FFFFFF" font-family="sans-serif" font-size="12" font-style="italic" lengthAdjust="spacing" textLength="38.0163" x="810.01" y="123.7523">[Spring</text><text fill="#FFFFFF" font-family="sans-serif" font-size="12" font-style="italic" lengthAdjust="spacing" textLength="3.336" x="848.0263" y="123.7523">&#160;</text><text fill="#FFFFFF" font-family="sans-serif" font-size="12" font-style="italic" lengthAdjust="spacing" textLength="34.0202" x="851.3623" y="123.7523">Batch]</text></g><!--link user to front1--><g id="link_user_front1"><path d="M202.06,52.292 C253.95,31.592 319.37,13.722 379.7,21.122 C437.43,28.202 451.58,34.162 506.7,52.752 C512.31,54.642 512.4232,54.5921 518.1732,56.7521 " fill="#FFFFFF" fill-opacity="0.00000" id="user-to-front1" style="stroke:#666666;stroke-width:1;"/><polygon fill="#666666" points="523.79,58.862,516.7715,51.9526,519.1094,57.1037,513.9582,59.4416,523.79,58.862" style="stroke:#666666;stroke-width:1;"/><text fill="#666666" font-family="sans-serif" font-size="12" lengthAdjust="spacing" textLength="30.6722" x="348.7" y="18.9001">utilise</text></g><!--link user to front2--><g id="link_user_front2"><path d="M203.59,100.952 C225.15,100.952 242.08,100.952 264.03,100.952 " fill="#FFFFFF" fill-opacity="0.00000" id="user-to-front2" style="stroke:#666666;stroke-width:1;"/><polygon fill="#666666" points="270.03,100.952,261.03,96.952,265.03,100.952,261.03,104.952,270.03,100.952" style="stroke:#666666;stroke-width:1;"/><text fill="#666666" font-family="sans-serif" font-size="12" lengthAdjust="spacing" textLength="30.6722" x="221.78" y="94.1001">utilise</text></g><!--link api1 to db_api1--><g id="link_api1_db_api1"><path d="M447.99,279.442 C420.7,287.252 390.22,301.322 373.7,326.552 C361.69,344.892 363.4588,361.1731 371.9888,381.0031 " fill="#FFFFFF" fill-opacity="0.00000" id="api1-to-db_api1" style="stroke:#666666;stroke-width:1;"/><polygon fill="#666666" points="375.15,388.352,374.7447,379.8176,369.233,382.1885,375.15,388.352" style="stroke:#666666;stroke-width:1;"/><text fill="#666666" font-family="sans-serif" font-size="12" font-weight="bold" lengthAdjust="spacing" textLength="35.3402" x="374.7" y="346.7001">sqlnet</text></g><!--link api2 to db_api2--><g id="link_api2_db_api2"><path d="M713.97,296.952 C713.45,306.322 712.95,316.892 712.7,326.552 C712.16,346.952 712.3873,361.6689 713.1673,380.4089 " fill="#FFFFFF" fill-opacity="0.00000" id="api2-to-db_api2" style="stroke:#666666;stroke-width:1;"/><polygon fill="#666666" points="713.5,388.402,716.1647,380.2842,710.1699,380.5337,713.5,388.402" style="stroke:#666666;stroke-width:1;"/><text fill="#666666" font-family="sans-serif" font-size="12" font-weight="bold" lengthAdjust="spacing" textLength="14.6641" x="713.7" y="346.7001">pg</text></g><!--link front1 to api1--><g id="link_front1_api1"><path d="M588.78,145.102 C567.75,175.442 544.8275,208.5171 526.8675,234.4271 " fill="#FFFFFF" fill-opacity="0.00000" id="front1-to-api1" style="stroke:#666666;stroke-width:1;"/><polygon fill="#666666" points="522.31,241.002,529.3331,236.1362,524.4019,232.7181,522.31,241.002" style="stroke:#666666;stroke-width:1;"/><text fill="#666666" font-family="sans-serif" font-size="12" font-weight="bold" lengthAdjust="spacing" textLength="41.3523" x="571.9641" y="191.3001">appelle</text><text fill="#666666" font-family="sans-serif" font-size="12" font-style="italic" lengthAdjust="spacing" textLength="54.0004" x="565.64" y="207.7522">[HTTP(S)]</text></g><!--link front1 to api2--><g id="link_front1_api2"><path d="M639.03,145.302 C649.07,165.682 661.78,190.082 674.7,211.152 C680.79,221.092 683.3534,225.0977 690.0834,234.2877 " fill="#FFFFFF" fill-opacity="0.00000" id="front1-to-api2" style="stroke:#666666;stroke-width:1;"/><polygon fill="#666666" points="694.81,240.742,692.5037,232.5152,687.663,236.0602,694.81,240.742" style="stroke:#666666;stroke-width:1;"/><text fill="#666666" font-family="sans-serif" font-size="12" font-weight="bold" lengthAdjust="spacing" textLength="41.3523" x="682.0241" y="191.3001">appelle</text><text fill="#666666" font-family="sans-serif" font-size="12" font-style="italic" lengthAdjust="spacing" textLength="54.0004" x="675.7" y="207.7522">[HTTP(S)]</text></g><!--link front2 to api3--><g id="link_front2_api3"><path d="M366.31,137.142 C342.45,199.852 295.6951,322.735 271.8751,385.335 " fill="#FFFFFF" fill-opacity="0.00000" id="front2-to-api3" style="stroke:#666666;stroke-width:1;"/><polygon fill="#666666" points="269.03,392.812,274.679,386.4019,269.0712,384.2681,269.03,392.812" style="stroke:#666666;stroke-width:1;"/><text fill="#666666" font-family="sans-serif" font-size="12" font-weight="bold" lengthAdjust="spacing" textLength="41.3523" x="333.2641" y="265.0001">appelle</text><text fill="#666666" font-family="sans-serif" font-size="12" font-style="italic" lengthAdjust="spacing" textLength="54.0004" x="326.94" y="281.4522">[HTTP(S)]</text></g><!--link front2 to api1--><g id="link_front2_api1"><path d="M405.99,137.132 C429.17,168.142 457.6498,206.2547 478.7698,234.5047 " fill="#FFFFFF" fill-opacity="0.00000" id="front2-to-api1" style="stroke:#666666;stroke-width:1;"/><polygon fill="#666666" points="483.56,240.912,481.1726,232.7084,476.3671,236.301,483.56,240.912" style="stroke:#666666;stroke-width:1;"/><text fill="#666666" font-family="sans-serif" font-size="12" font-weight="bold" lengthAdjust="spacing" textLength="41.3523" x="467.3741" y="191.3001">appelle</text><text fill="#666666" font-family="sans-serif" font-size="12" font-style="italic" lengthAdjust="spacing" textLength="54.0004" x="461.05" y="207.7522">[HTTP(S)]</text></g><!--link api2 to api3--><g id="link_api2_api3"><path d="M642.61,282.832 C595.1,292.362 532.26,307.042 478.7,326.552 C448.81,337.432 443.74,345.592 414.7,358.552 C381.54,373.352 372.01,374.102 338.7,388.552 C332.99,391.022 334.377,390.3286 328.487,393.0186 " fill="#FFFFFF" fill-opacity="0.00000" id="api2-to-api3" style="stroke:#666666;stroke-width:1;"/><polygon fill="#666666" points="321.21,396.342,329.7333,395.7474,327.2407,390.2897,321.21,396.342" style="stroke:#666666;stroke-width:1;"/><text fill="#666666" font-family="sans-serif" font-size="12" font-weight="bold" lengthAdjust="spacing" textLength="41.3523" x="486.0241" y="338.7001">appelle</text><text fill="#666666" font-family="sans-serif" font-size="12" font-style="italic" lengthAdjust="spacing" textLength="54.0004" x="479.7" y="355.1522">[HTTP(S)]</text></g><!--link api2 to queue1--><g id="link_api2_queue1"><path d="M729.58,296.992 C739.43,315.162 753.54,339.202 768.7,358.552 C779.45,372.282 786.9776,380.5332 799.0876,392.1532 " fill="#FFFFFF" fill-opacity="0.00000" id="api2-to-queue1" style="stroke:#666666;stroke-width:1;"/><polygon fill="#666666" points="804.86,397.692,801.1646,389.9885,797.0105,394.3178,804.86,397.692" style="stroke:#666666;stroke-width:1;"/><text fill="#666666" font-family="sans-serif" font-size="12" font-weight="bold" lengthAdjust="spacing" textLength="41.3283" x="769.7" y="338.7001">produit</text><text fill="#666666" font-family="sans-serif" font-size="12" font-weight="bold" lengthAdjust="spacing" textLength="3.336" x="811.0283" y="338.7001">&#160;</text><text fill="#666666" font-family="sans-serif" font-size="12" font-weight="bold" lengthAdjust="spacing" textLength="58.0324" x="814.3643" y="338.7001">messages</text><text fill="#666666" font-family="sans-serif" font-size="12" font-style="italic" lengthAdjust="spacing" textLength="35.3523" x="803.3722" y="355.1522">[kafka]</text></g><!--link api1 to queue1--><g id="link_api1_queue1"><path d="M519.09,296.972 C532.2,317.382 552.98,344.212 578.7,358.552 C657.59,402.532 695.42,356.072 779.7,388.552 C786.01,390.982 785.4281,390.1639 791.4681,393.6839 " fill="#FFFFFF" fill-opacity="0.00000" id="api1-to-queue1" style="stroke:#666666;stroke-width:1;"/><polygon fill="#666666" points="798.38,397.712,792.9787,391.0919,789.9576,396.2759,798.38,397.712" style="stroke:#666666;stroke-width:1;"/><text fill="#666666" font-family="sans-serif" font-size="12" font-weight="bold" lengthAdjust="spacing" textLength="63.3484" x="579.7" y="338.7001">consomme</text><text fill="#666666" font-family="sans-serif" font-size="12" font-weight="bold" lengthAdjust="spacing" textLength="3.336" x="643.0484" y="338.7001">&#160;</text><text fill="#666666" font-family="sans-serif" font-size="12" font-weight="bold" lengthAdjust="spacing" textLength="58.0324" x="646.3844" y="338.7001">messages</text><text fill="#666666" font-family="sans-serif" font-size="12" font-style="italic" lengthAdjust="spacing" textLength="35.3523" x="624.3823" y="355.1522">[kafka]</text></g><!--link job1 to queue1--><g id="link_job1_queue1"><path d="M863.87,136.932 C869.05,149.902 874.11,164.922 876.7,179.152 C890.94,257.602 896.48,281.312 876.7,358.552 C873.19,372.242 870.4175,379.2432 863.4975,390.9632 " fill="#FFFFFF" fill-opacity="0.00000" id="job1-to-queue1" style="stroke:#666666;stroke-width:1;"/><polygon fill="#666666" points="859.43,397.852,866.0808,392.4885,860.9142,389.4379,859.43,397.852" style="stroke:#666666;stroke-width:1;"/><text fill="#666666" font-family="sans-serif" font-size="12" font-weight="bold" lengthAdjust="spacing" textLength="63.3484" x="890.54" y="257.5001">consomme</text><text fill="#666666" font-family="sans-serif" font-size="12" font-weight="bold" lengthAdjust="spacing" textLength="3.336" x="953.8884" y="257.5001">&#160;</text><text fill="#666666" font-family="sans-serif" font-size="12" font-weight="bold" lengthAdjust="spacing" textLength="58.0324" x="957.2244" y="257.5001">messages</text><text fill="#666666" font-family="sans-serif" font-size="12" font-weight="bold" lengthAdjust="spacing" textLength="3.336" x="1015.2568" y="257.5001">&#160;</text><text fill="#666666" font-family="sans-serif" font-size="12" font-weight="bold" lengthAdjust="spacing" textLength="14.0041" x="1018.5929" y="257.5001">en</text><text fill="#666666" font-family="sans-serif" font-size="12" font-weight="bold" lengthAdjust="spacing" textLength="67.3564" x="927.8903" y="271.9002">asynchrone</text><text fill="#666666" font-family="sans-serif" font-size="12" font-style="italic" lengthAdjust="spacing" textLength="35.3523" x="943.8923" y="288.3523">[kafka]</text></g><!--link job1 to api2--><g id="link_job1_api2"><path d="M819.7,137.132 C795.03,168.142 764.5913,206.4021 742.1113,234.6521 " fill="#FFFFFF" fill-opacity="0.00000" id="job1-to-api2" style="stroke:#666666;stroke-width:1;"/><polygon fill="#666666" points="737.13,240.912,744.4588,236.5201,739.7639,232.7841,737.13,240.912" style="stroke:#666666;stroke-width:1;"/><text fill="#666666" font-family="sans-serif" font-size="12" font-weight="bold" lengthAdjust="spacing" textLength="41.3523" x="786.65" y="191.3001">appelle</text><text fill="#666666" font-family="sans-serif" font-size="12" font-weight="bold" lengthAdjust="spacing" textLength="3.336" x="828.0023" y="191.3001">&#160;</text><text fill="#666666" font-family="sans-serif" font-size="12" font-weight="bold" lengthAdjust="spacing" textLength="14.0041" x="831.3383" y="191.3001">en</text><text fill="#666666" font-family="sans-serif" font-size="12" font-weight="bold" lengthAdjust="spacing" textLength="3.336" x="845.3424" y="191.3001">&#160;</text><text fill="#666666" font-family="sans-serif" font-size="12" font-weight="bold" lengthAdjust="spacing" textLength="20.6761" x="848.6784" y="191.3001">maj</text><text fill="#666666" font-family="sans-serif" font-size="12" font-style="italic" lengthAdjust="spacing" textLength="54.0004" x="801.0021" y="207.7522">[HTTP(S)]</text></g><!--SRC=[ZP9DRzim38Rl-HMSJmwGhQZRqz06S9DrwHRKYkMYsCbG7DPHQakg90_hlvzaErqy9Eik_X0VlYHVwWCNHTLi4AvcbsUpotoEgfAlDGex7ItZ7yb3bcS9oUV9utqu7j55yfYJBobDxdEIf5aQtsNkU4HG6od2ng2UGF1WUSKDizXeuCAY5dY6lzftuE2P59PnWJfyqkxpt6NS-WzMGQnKnGjckHHmUnwuI8gii9zs1a9AuclAHLaX45RY8Jjsid-fHgTK8wzA5iG9qlGQAEgVg85oPq6AOeFQbHWFssIA-oPZSkSGOo5kEnlKT4ZK8ryrKzlL4kBe67NHKsLAPX1VUEJAC650EGkviIWAd1ucpTVXPfttBTmmWttvHBEYmgDaz4PsmqfZIurqjJoaLmqs6BxufrTkVrlXx-pfcGtQticrHxx9DRG4LTuak66ss7gd_DhXunIwTS9dQDeBWCD0T10OfLXrjkvd2ynB9T0wkJuKJVR31AhqLVnvVs6w3AOKLiu2rz4YoqX8ntts7ofwZuecxKx-X_fNnRRKEqejq_iTA2qt3RTGep7kCXkFF_V6ltcpXmifZAnhF4bt2pg90mfWvbKKMpSC7ayUcEKJQhORpl0R]--></g></svg>